<?xml version="1.0" encoding="utf-8"?>
<svg width="512px" height="512px" viewbox="0 0 512 512" version="1.1" xmlns:xlink="http://www.w3.org/1999/xlink" xmlns="http://www.w3.org/2000/svg">
  <defs>
    <path d="M0 0L512 0L512 512L0 512L0 0Z" id="path_1" />
    <clipPath id="mask_1">
      <use xlink:href="#path_1" />
    </clipPath>
  </defs>
  <g id="logo">
    <path d="M0 0L512 0L512 512L0 512L0 0Z" id="Background" fill="none" fill-rule="evenodd" stroke="none" />
    <g clip-path="url(#mask_1)">
      <g id="Group" transform="translate(1.5258789E-05 16)">
        <path d="M293.64 90C293.64 55.204 270.87 0 209.77 0C184.666 0 163.549 11.835 146.82 35.229C130.091 11.835 108.973 0 83.87 0C22.769 0 0 55.204 0 90C0 149.993 46.822 187.52 110.787 242.217C120.186 250.253 129.905 258.564 140.267 267.554C142.147 269.185 144.483 270 146.82 270C149.157 270 151.493 269.185 153.373 267.554C163.735 258.564 173.454 250.253 182.853 242.217C249.819 184.954 293.64 148.725 293.64 90L293.64 90ZM146.82 246.776C138.829 239.88 131.208 233.363 123.785 227.015C56.863 169.792 20 138.27 20 90C20 57.257 41.421 20 83.87 20C106.023 20 123.744 32.72 138.046 58.886C139.799 62.094 143.164 64.09 146.82 64.09C150.476 64.09 153.841 62.094 155.594 58.886C169.896 32.72 187.617 20 209.77 20C251.626 20 273.64 56.704 273.64 90C273.64 138.27 236.777 169.792 169.855 227.016C162.432 233.363 154.811 239.88 146.82 246.776L146.82 246.776Z" transform="translate(109.17998 0)" id="Shape" fill="#F1C40F" fill-rule="evenodd" stroke="none" />
        <path d="M71.858 292.114L120 316.181L120 370C120 375.522 124.478 380 130 380L236 380C241.522 380 246 375.522 246 370L246 239.45C246 208.812 223.017 183.405 192.615 180.357L191.797 180.269C174.2 178.505 143.042 166.469 130.739 154.167L108.281 131.718C100.724 124.162 90.681 120 80 120L80 40C80 17.944 62.056 0 40 0C17.944 0 0 17.944 0 40L0 175.84C0 225.054 27.798 270.079 71.858 292.114L71.858 292.114ZM20 40C20 28.972 28.972 20 40 20C51.028 20 60 28.972 60 40L60 125.361C47.804 132.413 40 145.561 40 160C40 170.681 44.162 180.724 51.719 188.28L102.929 239.5C106.833 243.406 113.165 243.406 117.071 239.501C120.976 235.597 120.977 229.265 117.072 225.359L65.862 174.138C62.081 170.359 60 165.338 60 160C60 151.536 65.357 143.956 73.332 141.139C73.333 141.139 73.335 141.138 73.336 141.137C73.338 141.136 73.341 141.136 73.343 141.135C80.241 138.687 88.423 140.145 94.14 145.863L116.598 168.312C139.784 191.498 190.441 200.222 190.542 200.25C210.756 202.276 225.999 219.129 225.999 239.45L225.999 360L139.999 360L139.999 310C139.999 306.212 137.858 302.749 134.471 301.056L80.802 274.226C43.299 255.469 20 217.77 20 175.84L20 40Z" transform="translate(0 100.000015)" id="Shape" fill="#F1C40F" fill-rule="evenodd" stroke="none" />
        <path d="M0 10C0 4.47715 4.47715 0 10 0C15.5228 0 20 4.47715 20 10C20 15.5228 15.5228 20 10 20C4.47715 20 0 15.5228 0 10Z" transform="translate(449 358)" id="Circle" fill="#F1C40F" fill-rule="evenodd" stroke="none" />
        <path d="M206 0C183.944 0 166 17.944 166 40L166 120C155.319 120 145.276 124.162 137.721 131.718L115.259 154.169C102.958 166.47 71.8 178.506 54.125 180.277L53.463 180.349C22.983 183.405 0 208.813 0 239.45L0 370C0 375.522 4.478 380 10 380L116 380C121.522 380 126 375.522 126 370L126 316.181L158.73 299.819C163.669 297.349 165.672 291.343 163.203 286.403C160.733 281.464 154.726 279.459 149.787 281.93L111.528 301.056C108.141 302.749 106 306.212 106 310L106 360L20 360L20 239.45C20 219.129 35.243 202.276 55.535 200.242L56.197 200.17C77.888 197.995 113.803 183.909 129.399 168.313L151.861 145.862C157.594 140.127 165.792 138.7 172.656 141.135C172.658 141.136 172.661 141.136 172.663 141.137C172.664 141.137 172.666 141.138 172.667 141.139C180.643 143.956 186 151.536 186 160C186 165.338 183.919 170.359 180.139 174.14L128.929 225.36C125.024 229.265 125.025 235.597 128.93 239.502C132.833 243.407 139.167 243.407 143.072 239.501L194.282 188.282C201.838 180.724 206 170.681 206 160C206 145.561 198.196 132.413 186 125.361L186 40.0001C186 28.9721 194.972 20.0001 206 20.0001C217.028 20.0001 226 28.9721 226 40.0001L226 175.84C226 194.136 221.383 212.3 212.647 228.368C210.008 233.221 211.803 239.292 216.656 241.93C221.507 244.568 227.581 242.775 230.218 237.921C240.543 218.93 246 197.463 246 175.84L246 40.0001C246 17.9441 228.056 6.10352e-05 206 6.10352e-05L206 0Z" transform="translate(266 100)" id="Shape" fill="#F1C40F" fill-rule="evenodd" stroke="none" />
      </g>
    </g>
  </g>
</svg>